<?xml version="1.0" encoding="utf-8"?>
<!-- Generator: Adobe Illustrator 25.2.1, SVG Export Plug-In . SVG Version: 6.00 Build 0)  -->
<svg version="1.1" id="Layer_1" xmlns="http://www.w3.org/2000/svg" xmlns:xlink="http://www.w3.org/1999/xlink" x="0px" y="0px"
	 viewBox="0 0 551.6 120.4" style="enable-background:new 0 0 551.6 120.4;" xml:space="preserve">
<style type="text/css">
	.st0{fill:none;}
	.st1{fill:#FFFFFF;}
</style>
<g>
	<g>
		<line class="st0" x1="23.9" y1="72.4" x2="533" y2="74.6"/>
		
			<rect x="277.2" y="-181" transform="matrix(4.434810e-03 -1 1 4.434810e-03 203.6975 351.659)" class="st1" width="2.5" height="509.1"/>
	</g>
	<g>
		<g>
			<path class="st1" d="M35.9,92.3H28l-1.1,2.5h-2.8L32,77.9h0.2l7.7,17h-2.8L35.9,92.3z M34.9,90.1L32,83.6l-3,6.5H34.9z"/>
		</g>
		<g>
			<path class="st1" d="M54.5,86.6c0-4.7,3.9-8.6,8.6-8.6c2.2,0,4.1,1,5.8,2.6l-1.5,2c-1.2-1.2-2.7-1.9-4.3-2c-3,0-5.9,2.6-5.9,5.9
				s2.9,5.9,5.9,6c1.7,0,3.2-0.8,4.3-2l1.5,2.1c-1.4,1.4-3.3,2.5-5.7,2.5C58.4,95.2,54.5,91.3,54.5,86.6z"/>
		</g>
		<g>
			<path class="st1" d="M83.7,86.8c0-4.7,3.9-8.6,8.6-8.6c2.2,0,4.1,1,5.8,2.6l-1.5,2c-1.2-1.2-2.7-1.9-4.3-2c-3,0-5.9,2.6-5.9,5.9
				s2.9,5.9,5.9,6c1.7,0,3.2-0.8,4.3-2l1.5,2.1c-1.4,1.4-3.3,2.5-5.7,2.5C87.6,95.3,83.7,91.5,83.7,86.8z"/>
		</g>
		<g>
			<path class="st1" d="M112.9,86.9c0-4.7,3.9-8.6,8.6-8.6s8.6,3.9,8.6,8.6s-3.9,8.5-8.6,8.5C116.7,95.5,112.8,91.6,112.9,86.9z
				 M127.4,86.9c0-3.3-2.7-6-5.9-6c-3.3,0-6,2.7-6,5.9c0,3.3,2.6,5.9,5.9,6C124.7,92.9,127.4,90.2,127.4,86.9z"/>
		</g>
		<g>
			<path class="st1" d="M145.8,89V78.7h2.6V89c0,2.3,1.6,4,3.6,4s3.7-1.7,3.7-4V78.7h2.6V89c0,3.8-2.8,6.6-6.3,6.6
				S145.8,92.8,145.8,89z"/>
		</g>
		<g>
			<path class="st1" d="M188.3,78.9l-0.1,16.9h-0.1l-10.6-11.1v10.8h-2.6l0.1-16.9h0.1l10.5,11.1V78.9H188.3z"/>
		</g>
		<g>
			<path class="st1" d="M215.5,81.6h-4.4l-0.1,14h-2.6l0.1-14h-4.4V79h11.5L215.5,81.6z"/>
		</g>
		<g>
			<path class="st1" d="M231.1,79.1h2.6l-0.1,16.6H231L231.1,79.1z"/>
		</g>
		<g>
			<path class="st1" d="M263.8,79.2l-0.1,16.9h-0.1L253,85v10.8h-2.6l0.1-16.9h0.1L261.1,90V79.2H263.8z"/>
		</g>
		<g>
			<path class="st1" d="M296.3,88.2c0,4.9-3.6,8-7.9,8c-4.8,0-8.6-3.9-8.6-8.6s3.9-8.6,8.6-8.6c2.1,0,4.5,1,6,2.6l-1.5,2.2
				c-1.3-1.3-3-2.1-4.6-2.1c-3,0-5.9,2.5-5.9,5.9c0,3.3,2.6,5.9,6.1,6c2.9,0,5-1.7,5-4.3v-0.1h-5.1v-2.4h7.9
				C296.2,87.3,296.3,87.8,296.3,88.2z"/>
		</g>
		<g>
			<path class="st1" d="M313,88c0-1.6,1.3-2.8,2.9-2.8s2.8,1.3,2.8,2.8c0,1.6-1.3,2.8-2.9,2.8C314.3,90.8,313,89.6,313,88z"/>
		</g>
		<g>
			<path class="st1" d="M346.7,82.2h-4.4l-0.1,14h-2.6l0.1-14h-4.4v-2.6h11.5L346.7,82.2z"/>
		</g>
		<g>
			<path class="st1" d="M372.8,93.8h-7.9l-1.1,2.5H361l7.9-16.9h0.2l7.7,17H374L372.8,93.8z M371.8,91.6l-2.9-6.5l-3,6.5H371.8z"/>
		</g>
		<g>
			<path class="st1" d="M396.1,87.8l-4.9-8h3l3.5,5.7l3.5-5.7h3l-5,7.9l5.3,8.7h-3l-3.8-6.3l-3.9,6.2h-3L396.1,87.8z"/>
		</g>
		<g>
			<path class="st1" d="M440.2,80h5.5c3.2,0,5.8,2.5,5.8,5.5s-2.6,5.4-5.9,5.3h-2.9v5.8h-2.6L440.2,80z M449,85.5
				c0-1.6-1.4-2.9-3.2-2.9h-2.9v5.7h2.9C447.5,88.3,449,87.1,449,85.5z"/>
		</g>
		<g>
			<path class="st1" d="M476.3,96.8l-4.4-6.4h-2v6.4h-2.6l0.1-16.6h5.2c3.1,0,5.6,2.4,5.6,5.4c0,2.1-1.4,4-3.3,4.6l4.8,6.7
				L476.3,96.8z M472.4,88.2c1.6,0,2.9-1.2,2.9-2.7s-1.3-2.7-2.9-2.7h-2.6v5.4L472.4,88.2z"/>
		</g>
		<g>
			<path class="st1" d="M497.5,82.9v4.3h6.3v2.6h-6.3v4.6h7.3V97h-9.9l0.1-16.6h9.9V83L497.5,82.9z"/>
		</g>
		<g>
			<path class="st1" d="M521,80.4h5.5c3.2,0,5.8,2.5,5.8,5.5s-2.6,5.4-5.9,5.3h-2.9V97h-2.6L521,80.4z M529.8,85.9
				c0-1.6-1.4-2.9-3.2-2.9h-2.9v5.7h2.9C528.3,88.7,529.8,87.4,529.8,85.9z"/>
		</g>
	</g>
	<g>
		<line class="st0" x1="23.9" y1="101.4" x2="533" y2="103.7"/>
		
			<rect x="277.2" y="-152" transform="matrix(4.435182e-03 -1 1 4.435182e-03 174.7228 380.5563)" class="st1" width="2.5" height="509.1"/>
	</g>
	<g>
		<g>
			<path class="st1" d="M16.4,61.1l3.7-6.5c1.8,1.5,4.2,2.4,6.9,2.4h0.2c6.3,0,11.5-5.3,11.5-11.6l-0.1-29.1H46l0.1,29.2
				c0,10.6-8.4,18.9-18.8,18.9H27C23.2,64.4,19.4,63.2,16.4,61.1z"/>
		</g>
		<g>
			<path class="st1" d="M65.2,23.5v12.6h17.9v7.4H65.2v20h-7.4V16.2h28.1v7.4H65.2V23.5z"/>
		</g>
		<g>
			<path class="st1" d="M113.1,39.9c0-13.3,11.1-24.4,24.4-24.4c6.1,0.1,11.8,2.7,16.4,7.2l-4.3,5.8c-3.3-3.3-7.6-5.5-12.2-5.5
				c-8.5,0-16.7,7.5-16.7,17s8.3,16.9,16.7,16.9c4.8,0,9-2.4,12.2-5.6l4.3,6c-4.1,4-9.3,7.1-16.3,7.1
				C124.2,64.2,113.1,53.2,113.1,39.9z"/>
		</g>
		<g>
			<path class="st1" d="M158.5,39.9c0-13.5,11-24.5,24.4-24.5s24.4,11,24.4,24.5c0,13.4-11,24.3-24.4,24.3
				C169.4,64.2,158.5,53.3,158.5,39.9z M199.8,39.9c0-9.3-7.6-17-17-17c-9.3,0-16.9,7.6-16.9,17c0,9.3,7.6,16.9,16.9,16.9
				C192.1,56.7,199.8,49.2,199.8,39.9z"/>
		</g>
		<g>
			<path class="st1" d="M255,16.2v48.1h-0.4l-30.2-31.5v30.8H217V15.5h0.4L247.5,47V16.2H255z"/>
		</g>
		<g>
			<path class="st1" d="M264.4,55.2l5.9-4.2c2.1,3.7,6,5.8,10.6,5.8c5.3,0,9.3-2.5,9.3-6.1c0-4.4-6.2-7-11.7-9.4
				c-5.5-2.5-11.7-5.3-11.7-12.7c0-7.7,6.7-13.1,15.2-13.1c6.7,0,11.8,3.3,13.7,8.4l-5.5,3.8c-1.5-3.2-4.7-5-8.1-5
				c-4.3,0-7.8,2.7-7.8,6c0,3.7,4.4,5,10.1,7.5c7.5,3.3,13.3,6.9,13.3,14.3c0,8.4-7.3,13.8-16.8,13.8
				C272.9,64.3,267.1,60.6,264.4,55.2z"/>
		</g>
		<g>
			<path class="st1" d="M306.5,45.6V16.3h7.4v29.3c0,6.5,4.6,11.3,10.4,11.3s10.4-4.8,10.4-11.3V16.3h7.5v29.3
				c0,10.8-7.8,18.8-17.9,18.8C314.2,64.4,306.5,56.4,306.5,45.6z"/>
		</g>
		<g>
			<path class="st1" d="M382.2,56.1v7.4h-28.5V16.3h7.4v39.8H382.2z"/>
		</g>
		<g>
			<path class="st1" d="M411.9,23.6h-12.6v39.8h-7.4V23.6h-12.6v-7.3H412v7.3C412,23.6,411.9,23.6,411.9,23.6z"/>
		</g>
		<g>
			<path class="st1" d="M420.8,16.3h7.4v47.2h-7.4V16.3z"/>
		</g>
		<g>
			<path class="st1" d="M478.2,16.2v48.1h-0.4l-30.2-31.5v30.8h-7.4V15.5h0.4L470.7,47V16.2H478.2z"/>
		</g>
		<g>
			<path class="st1" d="M535.1,41.4c0,14-10.2,22.9-22.5,22.9c-13.7,0-24.6-11-24.6-24.3c0-13.4,11-24.4,24.4-24.4
				c5.9,0,12.7,2.9,17.2,7.2l-4.1,6.1c-3.7-3.6-8.7-5.9-13.1-5.9c-8.6,0-16.7,7.2-16.7,17c0,9.3,7.3,16.9,17.4,16.9
				c8.1,0,14.2-4.9,14.2-12.2v-0.1h-14.6v-6.8H535C535.1,38.8,535.1,40.1,535.1,41.4z"/>
		</g>
	</g>
</g>
</svg>
