<?xml version="1.0" encoding="utf-8"?>
<!-- Generator: Adobe Illustrator 25.2.1, SVG Export Plug-In . SVG Version: 6.00 Build 0)  -->
<svg version="1.1" id="Layer_1" xmlns="http://www.w3.org/2000/svg" xmlns:xlink="http://www.w3.org/1999/xlink" x="0px" y="0px"
	 viewBox="0 0 30 30" style="enable-background:new 0 0 30 30;" xml:space="preserve">
<style type="text/css">
	.st0{fill:#23879E;}
</style>
<g id="Capa_1">
</g>
<path id="map-marker-14" class="st0" d="M14.6,0.6c-5,0-9,4-9,9c0,1.3,0.3,2.6,0.8,3.7l6.8,14.9c0.3,0.7,0.8,1.2,1.3,1.2
	s1-0.4,1.3-1.2l6.8-14.9c2.1-4.5,0.1-9.9-4.4-11.9C17.2,0.9,15.9,0.6,14.6,0.6z M14.6,15c-3,0-5.4-2.4-5.4-5.4s2.4-5.4,5.4-5.4
	c3,0,5.4,2.4,5.4,5.4c0,0,0,0,0,0C20,12.6,17.6,15,14.6,15z"/>
</svg>
