<?xml version="1.0" encoding="utf-8"?>
<!-- Generator: Adobe Illustrator 25.2.1, SVG Export Plug-In . SVG Version: 6.00 Build 0)  -->
<svg version="1.1" id="Layer_1" xmlns="http://www.w3.org/2000/svg" xmlns:xlink="http://www.w3.org/1999/xlink" x="0px" y="0px"
	 viewBox="0 0 30 30" style="enable-background:new 0 0 30 30;" xml:space="preserve">
<style type="text/css">
	.st0{fill:#23879E;}
</style>
<g id="Capa_1">
</g>
<path id="phone-1" class="st0" d="M29.8,23.9l-0.1-0.4c-0.5-1.1-1.4-2-2.6-2.4L23.2,20c-1.2-0.3-2.4,0.1-3.4,0.9l-1.4,1.4
	c-5.2-1.4-9.2-5.4-10.6-10.6l1.4-1.4c0.8-0.9,1.1-2.2,0.9-3.4L9,2.9C8.6,1.8,7.7,0.8,6.6,0.4L6.1,0.2C4.9-0.1,3.7,0.2,2.8,1L0.7,3.1
	C0.4,3.6,0.1,4.1,0,4.6C-0.1,18.5,11,29.9,24.9,30c0.2,0,0.3,0,0.5,0c0.5-0.1,1.1-0.3,1.5-0.6l2.1-2.1
	C29.8,26.4,30.1,25.1,29.8,23.9z"/>
</svg>
