<?xml version="1.0" encoding="utf-8"?>
<!-- Generator: Adobe Illustrator 25.2.0, SVG Export Plug-In . SVG Version: 6.00 Build 0)  -->
<svg version="1.1" id="b4399b83-2ecd-46d4-bd64-e276547eb0bb"
	 xmlns="http://www.w3.org/2000/svg" xmlns:xlink="http://www.w3.org/1999/xlink" x="0px" y="0px" viewBox="0 0 853.1 565"
	 style="enable-background:new 0 0 853.1 565;" xml:space="preserve">
<style type="text/css">
	.st0{fill:#F2F2F2;}
	.st1{fill:#FFFFFF;}
	.st2{fill:#30AAB1;}
	.st3{fill:#27313A;}
	.st4{fill:#2173BD;}
	.st5{fill:#A0616A;}
	.st6{fill:#808080;}
	.st7{fill:#2F2E41;}
</style>
<path id="Path_253" class="st0" d="M820.1,378.1c-6.3,6.6-13.8,11.9-22.1,15.6h0c-0.8,0.4-1.6,0.7-2.3,1.1h0l0,0l0,0h0c0,0,0,0,0,0
	h0l0,0c0,0,0,0,0,0l0,0l0,0h0c0,0,0,0,0,0h0c-5.5,2.4-11.2,4.4-17.1,6.1c-34.2,9.7-70.1,11.6-105.1,5.5l-2-0.4v-81.1
	c0.7-0.3,1.3-0.6,2-0.8c4.4-1.8,8.8-3.5,13.3-5c6.4-2.2,13-4.1,19.6-5.7c21.6-5.2,43.9-7,66-5.3c4,0.3,8.1,0.7,12.1,1.3
	c8.6,1.1,17,3.3,24.9,6.8h0c1.1,0.5,2.2,1.1,3.3,1.7c6.9,3.5,12.6,9,16.2,15.9c1.3,2.5,2.2,5.2,2.7,8v0c0.2,1,0.3,1.9,0.5,2.9
	C833.3,356.5,828.4,369.1,820.1,378.1z"/>
<path id="Path_254" class="st1" d="M832,344.6c-0.1,0-0.2,0-0.3,0c-17.1,0.8-34.2,1.9-51.3,3.3h0c-0.1,0-0.1,0-0.2,0
	c-17.5,1.5-35,3.4-52.5,5.7c-0.7,0.1-1.5,0.2-2.2,0.3c-12.1,1.6-24.1,3.4-36.2,5.4c-5.3,0.9-10.6,1.8-15.9,2.7
	c-0.7,0.1-1.3,0.2-2,0.4v-3c0.7-0.1,1.3-0.2,2-0.4c17.6-3.1,35.3-5.8,53-8.2c4.5-0.6,8.9-1.2,13.4-1.7c12.9-1.6,25.9-2.9,38.8-4
	l2.8-0.2c16.6-1.4,33.2-2.5,49.8-3.2c0.1,0,0.2,0,0.2,0C833.2,341.9,833.5,344.3,832,344.6z"/>
<path id="Path_255" class="st1" d="M796.4,391.9c-21.5-0.1-42.2-8.7-57.5-23.9c-4.3-4.2-8-9-11.2-14.1c-1-1.6-3.4,0.2-2.4,1.8
	c12,18.8,31,32.2,52.8,37.1c6.1,1.4,12.4,2.1,18.6,2C798.7,394.8,798.3,391.9,796.4,391.9L796.4,391.9z"/>
<path id="Path_256" class="st1" d="M706.2,313.4c-0.2,0.6-0.7,1-1.3,1.1c-4.9,1.3-9.6,3.1-14.1,5.5c-6.5,3.4-12.4,7.9-17.5,13.2
	c-0.3,0.3-0.5,0.5-0.8,0.8c-0.4,0.4-0.8,0.9-1.2,1.4v-4.4c0.6-0.7,1.3-1.4,2-2c4-3.8,8.5-7.2,13.3-10
	C693.1,316.9,699.6,315,706.2,313.4z"/>
<path id="Path_257" class="st1" d="M811,315.4c-13.6,5.8-24.9,15.8-32.4,28.6c-0.3,0.8,0,1.6,0.8,2c0.8,0.3,1.6,0,2-0.8
	c7.1-12,17.9-21.5,30.8-27c0.8-0.3,1.1-1.2,0.8-2C812.6,315.4,811.8,315.1,811,315.4L811,315.4z"/>
<path id="Path_258" class="st0" d="M852,230.4c-2.5,8.8-6.7,17-12.3,24.1l0,0c-0.5,0.7-1,1.4-1.6,2v0c-3.8,4.7-8,9.2-12.4,13.4
	c-15.9,15.2-33.9,28-53.4,38.1c-30.7,16-65,25.5-98.9,26c-0.3,0-0.5,0-0.8,0c-0.4,0-0.8,0-1.2,0v-45.4c0.6-1.2,1.3-2.5,2-3.7
	c8.8-15.9,19.6-30.6,32-43.8c0.3-0.3,0.6-0.7,0.9-1c4.7-4.9,9.6-9.6,14.7-14.1c19.7-17.4,42.6-30.9,67.3-39.8
	c8.1-3.1,16.6-4.9,25.2-5.6c1.3-0.1,2.5-0.1,3.7-0.1c7.8-0.1,15.3,2.2,21.7,6.5c2.3,1.6,4.4,3.6,6.1,5.8c0.6,0.8,1.2,1.6,1.7,2.4v0
	C853.5,205.2,855.1,218.7,852,230.4z"/>
<path id="Path_259" class="st1" d="M846.9,195.3L846.9,195.3c-0.1,0.1-0.2,0.1-0.2,0.2c-14.8,8.6-29.4,17.5-43.8,26.8c0,0,0,0-0.1,0
	c-0.1,0-0.1,0.1-0.2,0.1c-14.8,9.5-29.5,19.3-43.9,29.5c-0.6,0.4-1.2,0.8-1.8,1.3c-9.9,7-19.8,14.2-29.5,21.5
	c-18.4,13.9-36.4,28.2-54,43.1c-0.7,0.6-1.3,1.1-2,1.7v-3.9c0.7-0.6,1.3-1.1,2-1.7c6.7-5.7,13.5-11.3,20.4-16.8
	c2-1.7,4.1-3.3,6.2-4.9c18.3-14.6,37-28.6,56.1-42.1h0c3.8-2.7,7.5-5.3,11.3-7.9c10.7-7.4,21.6-14.6,32.5-21.6
	c0.8-0.5,1.6-1,2.4-1.5c14-9,28.2-17.6,42.6-26c0.1,0,0.1-0.1,0.2-0.1C846.7,192.3,848.1,194.3,846.9,195.3z"/>
<path id="Path_260" class="st1" d="M837.3,253.6c-19.1,9.9-41.4,11.9-62,5.6c-5.7-1.8-11.3-4.2-16.4-7.3c-1.7-1-2.9,1.7-1.3,2.7
	c19.4,11.1,42.4,14.1,64,8.4c6.1-1.6,11.9-3.9,17.4-6.9C840.7,255.2,839,252.7,837.3,253.6L837.3,253.6z"/>
<path id="Path_261" class="st1" d="M696.5,290.2c-0.9-5.2-1.3-10.6-1-15.9c0.7-12.1,4.4-23.9,10.8-34.2c4.7-4.9,9.6-9.6,14.7-14.1
	c0.1,0.6-0.1,1.2-0.6,1.6c-3.7,3.4-7.1,7.2-9.9,11.4c-10.2,14.9-14.2,33.1-11.1,50.9c0.1,0.4,0,0.8-0.3,1.1
	c-0.7,0.6-1.7,0.5-2.3-0.2C696.7,290.7,696.5,290.5,696.5,290.2L696.5,290.2z"/>
<path id="Path_262" class="st1" d="M814.7,179.1c-9.3,11.5-14.7,25.6-15.4,40.4c0.1,0.8,0.8,1.4,1.6,1.4c0.8-0.1,1.4-0.8,1.4-1.6
	c0.7-14,5.9-27.4,14.7-38.2C818.2,179.6,816,177.6,814.7,179.1L814.7,179.1z"/>
<path id="Path_263" class="st0" d="M711.2,212L711.2,212c-0.1,0.9-0.2,1.7-0.2,2.6v0c-0.7,6.1-1.8,12-3.2,18
	c-0.7,2.9-1.5,5.8-2.3,8.7c-0.1,0.4-0.2,0.7-0.3,1.1v0c-2.4,8.4-5.4,16.6-8.7,24.7c-6.2,14.8-13.9,29-23,42.2c-0.6,1-1.3,1.9-2,2.9
	V155.5c0.7,0,1.3,0,2,0c0.3,0,0.6,0,1,0c2.8,0.1,5.6,0.7,8.3,1.6c0.9,0.3,1.8,0.7,2.7,1c10.9,4.8,19.5,15.3,23.2,26.9
	C711.2,193.8,712.1,202.9,711.2,212z"/>
<path id="Path_264" class="st1" d="M685.4,158.1c0,0.1-0.1,0.2-0.1,0.3c-4,7.9-8,15.8-11.9,23.7c-0.7,1.4-1.3,2.7-2,4.1v-6.8
	c0.7-1.4,1.3-2.7,2-4.1c3-6.1,6-12.1,9.1-18.1c0-0.1,0.1-0.1,0.1-0.2C683.5,155.8,685.8,156.7,685.4,158.1z"/>
<path id="Path_265" class="st1" d="M711.5,213.6c-0.2,0.3-0.4,0.6-0.6,1c-2.9,5.1-6.4,9.9-10.4,14.2c-7.7,8.3-16.9,15-27.2,19.8
	c-0.7,0.3-1.3,0.6-2,0.9v-3.2c0.7-0.3,1.3-0.6,2-0.9c14.9-7.1,27.2-18.5,35.4-32.8c0.5-0.8,1.5-1.1,2.2-0.6c0.1,0,0.1,0.1,0.2,0.1
	C711.7,212.3,711.9,213,711.5,213.6L711.5,213.6z"/>
<path id="Path_266" class="st2" d="M673.4,33v76h-2v-0.8H2.4v0.8h-2V33c0-18.2,14.8-33,33-33h607C658.6,0,673.4,14.8,673.4,33z"/>
<path id="Path_267" class="st3" d="M640.4,0h-607c-18.2,0-33,14.8-33,33v434c0,18.2,14.8,33,33,33h607c18.2,0,33-14.8,33-33V33
	C673.4,14.8,658.6,0,640.4,0z M671.4,467c0,17.1-13.9,31-31,31h-607c-17.1,0-31-13.9-31-31V33c0-17.1,13.9-31,31-31h607
	c17.1,0,31,13.9,31,31L671.4,467z"/>
<circle id="Ellipse_20" class="st1" cx="136.4" cy="54.5" r="20"/>
<circle id="Ellipse_21" class="st1" cx="537.4" cy="54.5" r="20"/>
<path id="Path_268" class="st4" d="M194.2,277.5h-119c-10.5,0-19-8.5-19-19v-56.2c0-10.5,8.5-19,19-19h119c10.5,0,19,8.5,19,19v56.2
	C213.2,269,204.7,277.5,194.2,277.5z"/>
<path id="Path_269" class="st4" d="M396.6,277.5h-119c-10.5,0-19-8.5-19-19v-56.2c0-10.5,8.5-19,19-19h119c10.5,0,19,8.5,19,19v56.2
	C415.6,269,407.1,277.5,396.6,277.5z"/>
<path id="Path_270" class="st0" d="M396.6,422.8h-119c-10.8,0-19.6-8.8-19.6-19.6V347c0-10.8,8.8-19.6,19.6-19.6h119
	c10.8,0,19.6,8.8,19.6,19.6v56.2C416.1,414,407.4,422.8,396.6,422.8z"/>
<path id="Path_271" class="st0" d="M193.8,422.8h-119c-10.8,0-19.6-8.8-19.6-19.6V347c0-10.8,8.8-19.6,19.6-19.6h119
	c10.8,0,19.6,8.8,19.6,19.6v56.2C213.3,414,204.6,422.8,193.8,422.8z"/>
<path id="Path_272" class="st0" d="M599,422.8H480c-10.8,0-19.6-8.8-19.6-19.6V347c0-10.8,8.8-19.6,19.6-19.6h119
	c10.8,0,19.6,8.8,19.6,19.6v56.2C618.5,414,609.8,422.8,599,422.8z"/>
<path id="Path_273" class="st0" d="M599,277.6H480c-10.8,0-19.6-8.8-19.6-19.6v-56.2c0-10.8,8.8-19.6,19.6-19.6h119
	c10.8,0,19.6,8.8,19.6,19.6V258C618.5,268.8,609.8,277.6,599,277.6z"/>
<circle id="Ellipse_22" class="st1" cx="134.7" cy="230.4" r="32.3"/>
<path id="Path_274" class="st4" d="M131.5,242.7c-0.7,0-1.4-0.2-2-0.7l0,0l-7.6-5.8c-1.5-1.1-1.8-3.2-0.7-4.7
	c1.1-1.5,3.2-1.8,4.7-0.7c0,0,0.1,0,0.1,0.1l0,0l4.9,3.8l11.6-15.1c1.1-1.5,3.2-1.8,4.7-0.6l0,0l-0.1,0.1l0.1-0.1
	c1.5,1.1,1.8,3.2,0.6,4.7l-13.7,17.8C133.5,242.2,132.5,242.7,131.5,242.7z"/>
<circle id="Ellipse_23" class="st1" cx="337.6" cy="229.9" r="32.3"/>
<path id="Path_275" class="st4" d="M334.4,242.2c-0.7,0-1.4-0.2-2-0.7l0,0l-7.6-5.8c-1.5-1.1-1.8-3.2-0.6-4.7
	c1.1-1.5,3.2-1.8,4.7-0.6l0,0l0,0l4.9,3.8l11.6-15.1c1.1-1.5,3.2-1.8,4.7-0.6c0,0,0,0,0,0l0,0l-0.1,0.1l0.1-0.1
	c1.5,1.1,1.8,3.2,0.6,4.7l-13.7,17.8C336.5,241.7,335.5,242.2,334.4,242.2z"/>
<path id="Path_276" class="st5" d="M555.7,382.1c4-4.4,3.7-11.2-0.7-15.2c-0.5-0.4-1-0.8-1.5-1.1l-18-96.2l-21.9,8.1l24.6,92
	c-2.9,5.2-0.9,11.8,4.3,14.7C546.9,386.8,552.3,385.9,555.7,382.1L555.7,382.1z"/>
<path id="Path_277" class="st5" d="M380.9,235.4c0.1,0.6,0.1,1.2,0,1.8l42.6,32.8l12.1-5l9.9,17.2l-20.5,10.9
	c-3.4,1.8-7.6,1.1-10.3-1.6l-42.6-43.9c-6.1,1.4-12.2-2.5-13.6-8.6c-1.4-6.1,2.5-12.2,8.6-13.6c6.1-1.4,12.2,2.5,13.6,8.6
	c0,0,0,0,0,0C380.8,234.5,380.9,234.9,380.9,235.4L380.9,235.4z"/>
<path id="Path_278" class="st5" d="M480.4,552.8h-12.3l-5.8-37.3h18.1L480.4,552.8z"/>
<path id="Path_279" class="st3" d="M483.5,564.7H444v-0.5c0-8.5,6.9-15.4,15.4-15.4l0,0h24.1L483.5,564.7z"/>
<path id="Path_280" class="st5" d="M526.4,552.8h-12.3l-5.8-37.3h18.1L526.4,552.8z"/>
<path id="Path_281" class="st3" d="M529.5,564.7H490v-0.5c0-8.5,6.9-15.4,15.4-15.4l0,0h24.1L529.5,564.7z"/>
<path id="Path_282" class="st6" d="M465.6,545.5c-2.3,0-4.3-1.8-4.5-4.1l-10.7-143.7l0.5,0l73.5-6l0,0.5l5.8,148.9
	c0.1,2.5-1.8,4.6-4.3,4.7h-0.2h-14.4c-2.2,0-4.1-1.6-4.4-3.8l-19.6-120.2c0-0.3-0.3-0.5-0.6-0.4c-0.3,0-0.4,0.3-0.4,0.5l-0.9,118.7
	c0,2.4-1.9,4.3-4.3,4.5l-15.4,0.6C465.8,545.5,465.7,545.5,465.6,545.5z"/>
<circle id="Ellipse_24" class="st5" cx="478.1" cy="191.6" r="24.6"/>
<path id="Path_283" class="st3" d="M482.9,406.9c-10.7,0-21.4-1.5-31.8-4.3c-2.1-0.6-3.4-2.6-3.2-4.7c3.3-49.7,4.1-88.3-2.9-114.9
	c-3-11-1.7-22.8,3.7-32.9c7.6-14.1,22.3-22.8,38.3-22.7l0,0c0.7,0,1.5,0,2.3,0.1c23.8,1.2,42.3,22.7,41.3,47.9l-4.8,120.2
	c0,1.8-1.1,3.4-2.8,4C510.2,404.4,496.6,406.9,482.9,406.9z"/>
<path id="Path_284" class="st3" d="M449.1,292.1l-18.4-22.5c-2-2.5-1.6-6.1,0.8-8.1c0.2-0.2,0.4-0.3,0.7-0.5l24.9-14.9
	c6.9-5.6,16.9-4.5,22.5,2.3c5.6,6.9,4.5,16.9-2.3,22.5l-19.5,21.4c-2.1,2.4-5.8,2.5-8.1,0.4C449.4,292.6,449.2,292.4,449.1,292.1
	L449.1,292.1z"/>
<path id="Path_285" class="st3" d="M506.9,289.3c-1.5-0.7-2.7-2-3.2-3.6l-8.3-27.7c-3.7-8-0.2-17.5,7.8-21.2
	c7.9-3.7,17.3-0.3,21.1,7.6l16,24.2c1.8,2.7,1,6.2-1.6,8c-0.2,0.2-0.5,0.3-0.7,0.4l-26.4,12.3C510.2,290,508.5,290,506.9,289.3z"/>
<path id="Path_286" class="st7" d="M490.3,211.7l-18.2-4.2c-1.9-0.4-4.1-1.3-4.4-3.2c-0.4-2.6,3.3-4.4,3-6.9
	c-0.3-2.5-3.7-2.8-6.1-3.5c-4.6-1.6-7.2-6.6-5.7-11.3c-3,3.6-8.2,4-11.8,1.1c0,0-0.1-0.1-0.1-0.1c-3.3-3.2-4.1-8.2-2-12.3
	c2.2-4,6.2-6.7,10.7-7.2c4.5-0.5,9,0.3,13,2.4c0.3-2.8,3.8-4,6.7-4c12.1,0.1,22.8,7.9,26.6,19.4c3.5,11.3,1.2,23.6-8.6,30.2
	L490.3,211.7z"/>
<path id="Path_287" class="st3" d="M673.7,565h-381c-0.6,0-1-0.4-1-1c0-0.6,0.4-1,1-1c0,0,0,0,0,0h381c0.6,0,1,0.4,1,1
	C674.7,564.5,674.2,565,673.7,565C673.7,565,673.7,565,673.7,565z"/>
</svg>
