<?xml version="1.0" encoding="utf-8"?>
<!-- Generator: Adobe Illustrator 25.2.0, SVG Export Plug-In . SVG Version: 6.00 Build 0)  -->
<svg version="1.1" id="a2fab10e-fac6-497d-8ec7-92fd5f96fda5"
	 xmlns="http://www.w3.org/2000/svg" xmlns:xlink="http://www.w3.org/1999/xlink" x="0px" y="0px" viewBox="0 0 836 437.5"
	 style="enable-background:new 0 0 836 437.5;" xml:space="preserve">
<style type="text/css">
	.st0{fill:#A0616A;}
	.st1{fill:#CCCCCC;}
	.st2{fill:#2F2E41;}
	.st3{fill:#3F3D56;}
	.st4{fill:#27313A;}
	.st5{fill:#2173BD;}
	.st6{fill:#FFFFFF;}
</style>
<g id="Group_181" transform="translate(0 0)">
	<g id="f59d61bb-6173-4011-886f-cab752b15cf5" transform="translate(414.065 0.001)">
		<path id="ea601028-2261-4201-a5c6-6d1fee0209f8" class="st0" d="M398.3,234.6c-4.8-2.8-6.5-9-3.7-13.8c0.3-0.5,0.6-1,1-1.5
			L385.1,142l22,1.1l3.5,75.4c4,3.9,4.1,10.4,0.2,14.4C407.5,236.3,402.4,237,398.3,234.6L398.3,234.6z"/>
		<path id="bab8e504-63c3-4a02-b094-c521f4d0da0a" class="st1" d="M410.1,144.1c-0.5,0.5-1,0.9-1.7,1.2l-19.8,7.6
			c-2.1,0.8-4.4-0.2-5.3-2.2l-17.5-39.4c-1.7-3.7-2-7.8-0.8-11.6c1.8-5.6,6.4-9.8,12.2-10.9c2.2-0.4,4.4-0.4,6.6,0.1
			c5.3,1.2,9.6,4.9,11.5,10l15.6,41.2C411.4,141.4,411.1,143,410.1,144.1z"/>
		<path id="e3cfda6a-f51e-4c96-8af0-12d99ec512c5" class="st0" d="M307,423.2h-13.7l-5-53.1l18.7,0.2L307,423.2z"/>
		<path id="a90fb924-173c-4f4a-b9ae-ede5dff37993" class="st2" d="M283.5,419.3h26.4v16.6h-43C266.9,426.7,274.3,419.3,283.5,419.3
			L283.5,419.3L283.5,419.3L283.5,419.3z"/>
		<path id="f7d48866-455f-47a0-876b-9c2c9b7d2f2d" class="st0" d="M370.7,423.2H357l-6.5-52.8h20.2L370.7,423.2z"/>
		<path id="ae80d259-143f-4a2f-8815-2d5111ab51c8" class="st2" d="M347.2,419.3h26.4v16.6h-43C330.6,426.7,338,419.3,347.2,419.3
			L347.2,419.3L347.2,419.3L347.2,419.3z"/>
		<path id="b7aaac11-5418-4b5b-a747-2fb27f89cd88" class="st2" d="M372.4,404.4l-21.5-1.6c-2.5-0.2-4.5-2.2-4.7-4.8l-4.8-99.1
			c-0.1-2.2-2-3.8-4.1-3.7c-1.8,0.1-3.3,1.4-3.6,3.1l-20,97.6c-0.5,2.5-2.8,4.2-5.3,4l-19.4-1.6c-2.8-0.2-4.8-2.6-4.6-5.4l0,0
			c0,0,0-0.1,0-0.1l18-180.3c0.3-2.8,2.7-4.8,5.5-4.5c0,0,0,0,0,0c0.2,0,0.4,0,0.6,0.1l68.6,14.9c2.3,0.5,4,2.6,4,5l-3.2,171.4
			c-0.1,2.7-2.3,4.9-5,4.9C372.6,404.4,372.5,404.4,372.4,404.4z"/>
		<circle id="eccc2a78-7d3a-4be1-aa48-fb8bb5d1e30a" class="st0" cx="353.6" cy="34.4" r="27.4"/>
		<path id="a0a57a86-6e42-4b50-b3a1-f8a38df428dd" class="st1" d="M311,226.5c-5.3-4.8-8.3-11.7-8.1-18.8
			c0-39.4,34.1-127.5,35.2-130.2c0.1-0.7,1-0.9,5.7-4.1c4.7-3.2,11.5-3.7,20.3-1.5c1.8,0.5,3.2,1.9,3.6,3.7l1.6,2.3
			c0.3,1.2,1.1,2.2,2.3,2.7c7,3,29.4,16.6,21.8,68c-7.1,47.7-9.9,75.8-10.8,85.7c-0.2,2.4-2.1,4.3-4.5,4.5
			c-3.5,0.3-9.4,0.7-16.4,0.7C345.2,239.5,322.8,237.3,311,226.5z"/>
		<path id="e2026d9f-0f48-4627-b939-bcbd235b248e" class="st0" d="M278.2,211.9c-2.5-5-0.4-11.1,4.6-13.6c0.5-0.3,1.1-0.5,1.7-0.6
			l34.3-70l17.7,13.2l-39.1,64.5c1.2,5.5-2.3,10.9-7.9,12.1C284.9,218.4,280.3,216.1,278.2,211.9L278.2,211.9z"/>
		<path id="aa5178ad-b05d-4950-85b1-a624717fe499" class="st1" d="M338.4,143.3c-0.7,0.2-1.4,0.2-2.1,0l-20.6-4.8
			c-2.2-0.5-3.5-2.6-3.2-4.8l7.4-42.5c0.6-4,2.7-7.6,5.8-10.1c4.6-3.7,10.8-4.5,16.2-2.3c2.1,0.8,3.9,2.1,5.4,3.7
			c3.7,3.9,5.2,9.4,4,14.7l-10,42.9C341,141.7,339.9,142.9,338.4,143.3L338.4,143.3z"/>
		<path id="f1455aca-238f-491a-b535-1c1a045e39f4" class="st2" d="M347.1,59.2c-2.7-2.8-3.9-6.7-3.2-10.5c1-5,1.5-8.3,1.6-9.5l0,0
			c0.4-4.1-3.8-7.4-7.8-7.9c-0.2,0-0.3,0-0.4,0c0.1,0.1,0.2,0.2,0.3,0.3c0.8,0.7,1.7,1.6,1.5,2.6c-0.1,0.6-0.7,1-1.6,1.2
			c-6.4,1.8-11.3,0.1-15.4-5.2c-1.2-1.5-2-3.3-2.4-5.1c-1.5-7.3,2.5-13.6,6.1-17.5c3-3.3,7.8-7.2,13.8-7.5c4.7-0.3,10.3,2.5,12,7.3
			c1.6-2.4,4.2-3.9,7.1-4c3.2-0.1,6.4,0.8,9.1,2.5c13.5,8.2,18.8,25.2,12.5,39.6c-4.6,9.1-13.2,15.4-23.2,16.9
			c-0.6,0.1-1.3,0.2-1.9,0.2C352.2,62.6,349.3,61.4,347.1,59.2L347.1,59.2z"/>
	</g>
	<path id="f152a38b-6c6f-456c-96ce-4c801960ccf2" class="st3" d="M363.6,195.6c-1.2-2.8-3.9-4.6-7-4.6H218c-4.2,0-7.5,3.4-7.5,7.5
		v175.5c0,4.2,3.4,7.5,7.5,7.5h138.7c4.2,0,7.5-3.4,7.5-7.5V198.4C364.2,197.5,364,196.5,363.6,195.6L363.6,195.6z M362.5,373.9
		c0,3.2-2.6,5.8-5.8,5.8H218c-3.2,0-5.8-2.6-5.8-5.8V198.4c0-3.2,2.6-5.8,5.8-5.8h138.7c2.4,0,4.5,1.5,5.4,3.7
		c0.1,0.2,0.2,0.4,0.2,0.7c0.1,0.5,0.2,1,0.2,1.5L362.5,373.9z"/>
	<path id="fabca9b7-6499-499c-b0ba-e512eedfa0e6" class="st4" d="M334.7,232.4h-41.8c-1.8,0-3.4-1.4-3.4-3.3c0-1.8,1.4-3.4,3.3-3.4
		c0,0,0.1,0,0.1,0h41.8c1.8,0,3.4,1.4,3.4,3.3c0,1.8-1.4,3.4-3.3,3.4C334.8,232.4,334.7,232.4,334.7,232.4L334.7,232.4L334.7,232.4z
		"/>
	<path id="b1b2178d-f6c7-4a19-857a-cc93cc70df69" class="st4" d="M334.7,249.9h-41.8c-1.8,0-3.4-1.4-3.4-3.3c0-1.8,1.4-3.4,3.3-3.4
		c0,0,0.1,0,0.1,0h41.8c1.8,0,3.4,1.4,3.4,3.3c0,1.8-1.4,3.4-3.3,3.4C334.8,249.9,334.7,249.9,334.7,249.9L334.7,249.9L334.7,249.9z
		"/>
	<path id="bd84b5e9-e9c5-4886-bcfd-3c769a5bd20c" class="st5" d="M271.5,259.9h-30.5c-2.1,0-3.8-1.7-3.8-3.8v-36
		c0-2.1,1.7-3.8,3.8-3.8h30.5c2.1,0,3.8,1.7,3.8,3.8v36C275.2,258.2,273.5,259.9,271.5,259.9z"/>
	<path id="ad20b6ae-6256-4ad3-9ba5-bff6ef303c78" class="st1" d="M334.4,285.8H240c-1.8,0-3.4-1.4-3.4-3.3c0-1.8,1.4-3.4,3.3-3.4
		c0,0,0.1,0,0.1,0h94.4c1.8,0,3.4,1.4,3.4,3.3c0,1.8-1.4,3.4-3.3,3.4C334.5,285.8,334.5,285.8,334.4,285.8z"/>
	<path id="f5b31b5a-d389-4394-a0c3-430493f21651" class="st1" d="M334.4,303.4H240c-1.8,0-3.3-1.6-3.3-3.4c0-1.8,1.5-3.2,3.3-3.3
		h94.4c1.8,0,3.4,1.4,3.4,3.3c0,1.8-1.4,3.4-3.3,3.4C334.5,303.4,334.5,303.4,334.4,303.4L334.4,303.4z"/>
	<path id="e6b00d4f-f233-434b-82e7-f520ed55a592" class="st1" d="M334.4,320.9H240c-1.8,0-3.3-1.6-3.3-3.4c0-1.8,1.5-3.2,3.3-3.3
		h94.4c1.8,0,3.4,1.4,3.4,3.3c0,1.8-1.4,3.4-3.3,3.4C334.5,320.9,334.5,320.9,334.4,320.9L334.4,320.9z"/>
	<path id="f83e6214-6629-4e95-ad35-3c9b0c78a3d6" class="st1" d="M334.4,338.5H240c-1.8,0-3.3-1.6-3.3-3.4c0-1.8,1.5-3.2,3.3-3.3
		h94.4c1.8,0,3.4,1.4,3.4,3.3c0,1.8-1.4,3.4-3.3,3.4C334.5,338.5,334.5,338.5,334.4,338.5L334.4,338.5z"/>
	<path id="b83f14e7-a754-4235-a578-aebf681d4a1c" class="st1" d="M334.4,356H240c-1.8,0-3.3-1.6-3.3-3.4c0-1.8,1.5-3.2,3.3-3.3h94.4
		c1.8,0,3.4,1.4,3.4,3.3c0,1.8-1.4,3.4-3.3,3.4C334.5,356,334.5,356,334.4,356L334.4,356z"/>
	<path id="a38c097c-1c01-4356-80b1-56a89c2c58fa" class="st3" d="M640,437.5h195c0.6,0,1-0.4,1-1s-0.4-1-1-1H640c-0.6,0-1,0.4-1,1
		S639.4,437.5,640,437.5L640,437.5z"/>
	<circle id="af1d3ae0-b86a-44f8-8168-f2f371efc620" class="st5" cx="289.7" cy="116.4" r="32.3"/>
	<path id="b4906b3b-71df-4c7e-84d8-52e6769e6d26" class="st6" d="M286.5,128.7c-0.7,0-1.4-0.2-2-0.7l0,0l-7.6-5.8
		c-1.5-1.2-1.7-3.3-0.6-4.7c1.1-1.4,3.2-1.7,4.7-0.6l0,0l4.9,3.8l11.6-15.1c1.1-1.5,3.2-1.8,4.7-0.6c0,0,0,0,0,0l0,0l-0.1,0.1
		l0.1-0.1c1.5,1.1,1.8,3.2,0.6,4.7l-13.7,17.8C288.5,128.2,287.5,128.7,286.5,128.7L286.5,128.7z"/>
	<circle id="eb67bc87-0ab3-400d-9346-8836e9b135a0" class="st1" cx="77.3" cy="79.8" r="21.9"/>
	<path id="a587243e-22a7-4e92-b127-7238b8715868" class="st6" d="M75.1,88.1c-0.5,0-1-0.2-1.4-0.5l0,0l-5.1-3.9
		c-1-0.8-1.1-2.3-0.3-3.2c0.8-0.9,2.1-1.1,3-0.4l3.3,2.6l7.9-10.3c0.8-1,2.2-1.2,3.2-0.4c0,0,0,0,0,0l0,0l0,0.1l0-0.1
		c1,0.8,1.2,2.2,0.4,3.2l-9.2,12.1C76.5,87.8,75.8,88.1,75.1,88.1L75.1,88.1z"/>
	<path id="b24c2fd4-5735-4a8b-b246-c12b52e11f5f" class="st1" d="M138.7,131c-0.9-2.2-3.1-3.6-5.5-3.7H24.1c-3.3,0-5.9,2.7-5.9,5.9
		v138.1c0,3.3,2.7,5.9,5.9,5.9c0,0,0,0,0,0h109.2c3.3,0,5.9-2.7,5.9-5.9l0,0V133.3C139.2,132.5,139,131.7,138.7,131z M137.9,271.4
		c0,2.5-2.1,4.6-4.6,4.6l0,0H24.1c-2.5,0-4.6-2.1-4.6-4.6l0,0l0,0V133.3c0-2.5,2.1-4.6,4.6-4.6h0h109.2c1.9,0,3.6,1.2,4.3,2.9
		c0.1,0.2,0.1,0.3,0.2,0.5c0.1,0.4,0.2,0.8,0.2,1.2L137.9,271.4z"/>
	<path id="f030a160-4767-48dc-a1cd-6e8d6a87c559" class="st1" d="M115.9,160H83.1c-1.5,0-2.6-1.2-2.6-2.6c0-1.5,1.2-2.6,2.6-2.6
		h32.9c1.5,0,2.6,1.2,2.6,2.6C118.6,158.8,117.4,160,115.9,160L115.9,160z"/>
	<path id="f0576b91-fb67-46c0-9bc8-b0d78fa4e393" class="st1" d="M115.9,173.8H83.1c-1.5,0-2.6-1.2-2.6-2.6c0-1.5,1.2-2.6,2.6-2.6
		h32.9c1.5,0,2.6,1.2,2.6,2.6C118.6,172.6,117.4,173.8,115.9,173.8L115.9,173.8z"/>
	<path id="bb47cdff-cafb-4bb6-bfa7-d7f244c106f8" class="st1" d="M66.2,181.6h-24c-1.6,0-3-1.3-3-3l0,0v-28.4c0-1.6,1.3-3,3-3
		c0,0,0,0,0,0h24c1.6,0,3,1.3,3,3l0,0v28.4C69.1,180.3,67.8,181.6,66.2,181.6z"/>
	<path id="b9c4730d-541e-403a-bfc4-7f597a133cff" class="st1" d="M115.7,202.1H41.4c-1.5,0-2.6-1.2-2.6-2.6c0-1.5,1.2-2.6,2.6-2.6
		h74.3c1.5,0,2.6,1.2,2.6,2.6C118.3,200.9,117.2,202.1,115.7,202.1C115.7,202.1,115.7,202.1,115.7,202.1z"/>
	<path id="b0b4ad5b-1090-4149-ad9f-38443074182d" class="st1" d="M115.7,215.9H41.4c-1.5,0-2.6-1.2-2.6-2.6c0-1.5,1.2-2.6,2.6-2.6
		h74.3c1.5,0,2.6,1.2,2.6,2.6C118.3,214.7,117.2,215.9,115.7,215.9z"/>
	<path id="a36ae105-a865-43f2-a38b-4a3728e49bb5" class="st1" d="M115.7,229.7H41.4c-1.5,0-2.6-1.2-2.6-2.6c0-1.5,1.2-2.6,2.6-2.6
		h74.3c1.5,0,2.6,1.2,2.6,2.6C118.3,228.5,117.2,229.7,115.7,229.7C115.7,229.7,115.7,229.7,115.7,229.7z"/>
	<path id="bd69ee89-5535-4e79-aba4-c83b03de0083" class="st1" d="M115.7,243.5H41.4c-1.5,0-2.6-1.2-2.6-2.6c0-1.5,1.2-2.6,2.6-2.6
		h74.3c1.5,0,2.6,1.2,2.6,2.6S117.2,243.5,115.7,243.5C115.7,243.5,115.7,243.5,115.7,243.5z"/>
	<path id="a075ca9b-1e14-49c6-b2ff-3fb4066a82fb" class="st1" d="M115.7,257.3H41.4c-1.5,0-2.6-1.2-2.6-2.6c0-1.5,1.2-2.6,2.6-2.6
		h74.3c1.5,0,2.6,1.2,2.6,2.6S117.2,257.3,115.7,257.3C115.7,257.3,115.7,257.3,115.7,257.3z"/>
	<path id="b99f005d-5535-4af5-95d9-44a7a4f0c0b8" class="st1" d="M0.8,277.9h153.4c0.4,0,0.8-0.4,0.8-0.8c0-0.4-0.3-0.7-0.8-0.8H0.8
		c-0.4,0-0.8,0.4-0.8,0.8C0,277.5,0.4,277.9,0.8,277.9z"/>
	<circle id="b1c5fac5-a790-403a-b8d0-31ae0bc4b4ba" class="st1" cx="497.3" cy="79.8" r="21.9"/>
	<path id="a5ae1e6c-de0b-426c-a811-1990f7b7ccda" class="st6" d="M495.1,88.1c-0.5,0-1-0.2-1.4-0.5l0,0l-5.1-3.9
		c-1-0.8-1.1-2.3-0.3-3.2c0.8-0.9,2.1-1.1,3-0.4l3.3,2.6l7.9-10.3c0.8-1,2.2-1.2,3.2-0.4c0,0,0,0,0,0l0,0l0,0.1l0-0.1
		c1,0.8,1.2,2.2,0.4,3.2l-9.2,12.1C496.5,87.8,495.8,88.1,495.1,88.1L495.1,88.1z"/>
	<path id="e481f25f-f0ef-423d-9e4a-b2d79b6febf5" class="st1" d="M558.7,131c-0.9-2.2-3.1-3.6-5.5-3.7H444.1c-3.3,0-5.9,2.7-5.9,5.9
		l0,0v138.1c0,3.3,2.7,5.9,5.9,5.9l0,0h109.2c3.3,0,5.9-2.7,5.9-5.9v0V133.3C559.2,132.5,559,131.7,558.7,131z M557.9,271.4
		c0,2.5-2.1,4.6-4.6,4.6H444.1c-2.5,0-4.6-2.1-4.6-4.6l0,0V133.3c0-2.5,2.1-4.6,4.6-4.6h109.2c1.9,0,3.6,1.2,4.3,2.9
		c0.1,0.2,0.1,0.3,0.2,0.5c0.1,0.4,0.2,0.8,0.2,1.2L557.9,271.4z"/>
	<path id="a5b052e7-0a6d-48d5-ba9e-291ff1ca3bfd" class="st1" d="M535.9,160h-32.9c-1.5,0-2.6-1.2-2.6-2.6c0-1.5,1.2-2.6,2.6-2.6
		c0,0,0,0,0,0h32.9c1.5,0,2.6,1.2,2.6,2.6C538.6,158.8,537.4,160,535.9,160L535.9,160z"/>
	<path id="bd247f09-cb3d-4df5-9c12-787ea9e72b07" class="st1" d="M535.9,173.8h-32.9c-1.5,0-2.6-1.2-2.6-2.6c0-1.5,1.2-2.6,2.6-2.6
		h32.9c1.5,0,2.6,1.2,2.6,2.6C538.6,172.6,537.4,173.8,535.9,173.8z"/>
	<path id="b3d7a89f-9ffc-4079-aa15-40ad611f9a98" class="st1" d="M486.2,181.6h-24c-1.6,0-3-1.3-3-3v-28.4c0-1.6,1.3-3,3-3h24
		c1.6,0,3,1.3,3,3v28.4C489.1,180.3,487.8,181.6,486.2,181.6z"/>
	<path id="e1bf4aca-fc8d-43da-a727-289201e2eac7" class="st1" d="M535.7,202.1h-74.3c-1.5,0-2.6-1.2-2.6-2.6c0-1.5,1.2-2.6,2.6-2.6
		h74.3c1.5,0,2.6,1.2,2.6,2.6C538.3,200.9,537.2,202.1,535.7,202.1z"/>
	<path id="b286f981-abb8-47cd-9209-f09770ef33ad" class="st1" d="M535.7,215.9h-74.3c-1.5,0-2.6-1.2-2.6-2.6c0-1.5,1.2-2.6,2.6-2.6
		c0,0,0,0,0,0h74.3c1.5,0,2.6,1.2,2.6,2.6C538.3,214.7,537.2,215.9,535.7,215.9L535.7,215.9z"/>
	<path id="ad15bc08-a918-4115-a327-9a31c97a6753" class="st1" d="M535.7,229.7h-74.3c-1.5,0-2.6-1.2-2.6-2.6c0-1.5,1.2-2.6,2.6-2.6
		c0,0,0,0,0,0h74.3c1.5,0,2.6,1.2,2.6,2.6C538.3,228.5,537.2,229.7,535.7,229.7L535.7,229.7z"/>
	<path id="a508ff04-1989-4f94-915f-90cf16933556" class="st1" d="M535.7,243.5h-74.3c-1.5,0-2.6-1.2-2.6-2.6c0-1.5,1.2-2.6,2.6-2.6
		h74.3c1.5,0,2.6,1.2,2.6,2.6C538.3,242.3,537.2,243.5,535.7,243.5z"/>
	<path id="e65b0501-2d31-4d85-b27f-ea92835ed026" class="st1" d="M535.7,257.3h-74.3c-1.5,0-2.6-1.2-2.6-2.6c0-1.5,1.2-2.6,2.6-2.6
		c0,0,0,0,0,0h74.3c1.5,0,2.6,1.2,2.6,2.6C538.3,256.1,537.2,257.3,535.7,257.3L535.7,257.3z"/>
	<path id="a3e956aa-8abe-48aa-ba4a-17518f20fda0" class="st1" d="M420.8,277.9h153.4c0.4,0,0.8-0.3,0.8-0.8c0-0.4-0.3-0.8-0.8-0.8
		c0,0,0,0-0.1,0H420.8c-0.4,0-0.8,0.4-0.8,0.8C420,277.5,420.4,277.9,420.8,277.9L420.8,277.9z"/>
	<path id="b01c4841-6b77-41d3-9bc6-bba4643c130f" class="st3" d="M189,382.1h195c0.6,0,1-0.4,1-1s-0.4-1-1-1H189c-0.6,0-1,0.4-1,1
		S188.4,382.1,189,382.1L189,382.1z"/>
</g>
</svg>
